<?xml version="1.0" standalone="no"?><!DOCTYPE svg PUBLIC "-//W3C//DTD SVG 1.1//EN" "http://www.w3.org/Graphics/SVG/1.1/DTD/svg11.dtd"><svg t="1585406581965" class="icon" viewBox="0 0 1024 1024" version="1.1" xmlns="http://www.w3.org/2000/svg" p-id="1740" xmlns:xlink="http://www.w3.org/1999/xlink" width="200" height="200"><defs><style type="text/css"></style></defs><path d="M512 546.67645645A211.34948731 211.34948731 0 0 0 661.43552017 185.88372421a211.34948731 211.34948731 0 1 0-298.88648987 298.88648987A209.96675491 209.96675491 0 0 0 512 546.67645645z m0-360.89315414c82.46183395 0 149.55139161 67.08955764 149.55139161 149.55139159S594.4541092 484.87836074 512 484.87836074 362.44088364 417.75790406 362.44088364 335.32696915 429.53044128 185.77557754 512 185.77557754z" fill="#ffffff" p-id="1741"></path><path d="M512 229.99983978c58.0824852 0 105.32712937 47.25236892 105.32712937 105.32712937a11.58714294 11.58714294 0 0 0 23.17428588 0c0-70.85924149-57.64989853-128.50141525-128.50141525-128.50141525a11.58714294 11.58714294 0 0 0 0 23.17428588z" fill="#ffffff" p-id="1742"></path><path d="M622.40229797 374.15162278m-11.79571152 0a11.79571152 11.79571152 0 1 0 23.59142304 0 11.79571152 11.79571152 0 1 0-23.59142304 0Z" fill="#ffffff" p-id="1743"></path><path d="M616.35380936 695.4244728L479.55599976 832.20683289l-71.94070816-71.94070816A30.89904786 30.89904786 0 0 0 363.93176269 803.99600219l82.21464158 82.17601777a47.32189179 47.32189179 0 0 0 66.85009002-1e-8L660.05278779 739.10800171a30.89904786 30.89904786 0 1 0-43.69897843-43.69897842z" fill="#ffffff" p-id="1744"></path><path d="M776.18685913 570.70819092H247.81314087c-43.69897842 0-79.24060822 34.65328217-79.24060822 77.24761963v201.06782913a30.89904786 30.89904786 0 0 0 61.79809571-1e-8V647.95581055c0-8.49723816 7.82518387-15.44952393 17.44251251-15.44952393h528.37371826c9.61732864 0 17.44251251 6.95228576 17.44251252 15.44952393v201.06782913a30.89904786 30.89904786 0 1 0 61.79809569-1e-8V647.95581055c0.03089904-42.61751175-35.51845551-77.24761963-79.24060821-77.24761963z" fill="#ffffff" p-id="1745"></path></svg>