<?xml version="1.0" standalone="no"?><!DOCTYPE svg PUBLIC "-//W3C//DTD SVG 1.1//EN" "http://www.w3.org/Graphics/SVG/1.1/DTD/svg11.dtd"><svg t="1585449129846" class="icon" viewBox="0 0 1024 1024" version="1.1" xmlns="http://www.w3.org/2000/svg" p-id="1773" xmlns:xlink="http://www.w3.org/1999/xlink" width="200" height="200"><defs><style type="text/css"></style></defs><path d="M817.6705947 206.47962941l-125.26335193 13.74841666L733.65249282 261.47329615 597.69592788 427.67637772 456.54551668 297.21917946c-9.47113149-8.86009075-24.44162965-8.86009075-34.21828153-0.30552036L214.87890353 484.19764627C204.49121093 493.66877775 203.57464985 509.8613574 213.04578132 520.24904999c4.88832591 5.49936668 11.91529447 8.24904999 18.94226294 8.24905001 6.11040741 0 12.22081482-2.1386426 17.10914079-6.41592777l190.0336705-171.70244824 143.90009454 132.90136114c5.19384631 4.88832591 12.22081482 7.02696852 18.94226303 6.72144819 7.02696852-0.61104073 13.44289632-3.9717648 18.02570183-9.16561112l149.7049816-183.00670198 34.21828149 34.21828147L817.6705947 206.47962941z m3e-8 0M286.06514986 817.52037059H224.96107575c-10.08217223 0-18.33122225-8.24904999-18.33122224-18.33122223v-207.75385203c0-10.08217223 8.24904999-18.33122225 18.33122224-18.33122222h61.10407411c10.08217223 0 18.33122225 8.24904999 18.33122226 18.33122222v207.75385205c0 10.08217223-8.24904999 18.33122225-18.33122226 18.33122221z" fill="#737680" p-id="1774"></path><path d="M457.15655742 817.52037059H396.0524833c-10.08217223 0-18.33122225-8.24904999-18.33122224-18.33122223V469.22714811c0-10.08217223 8.24904999-18.33122225 18.33122224-18.33122224h61.10407412c10.08217223 0 18.33122225 8.24904999 18.33122223 18.33122224v329.96200027c0 10.08217223-8.24904999 18.33122225-18.33122223 18.33122221zM628.24796496 817.52037059h-61.10407415c-10.08217223 0-18.33122225-8.24904999-18.33122222-18.33122223v-238.30588906c0-10.08217223 8.24904999-18.33122225 18.33122222-18.33122225h61.10407415c10.08217223 0 18.33122225 8.24904999 18.33122227 18.33122225v238.30588906c0 10.08217223-8.24904999 18.33122225-18.33122227 18.33122223zM799.33937249 817.52037059h-61.10407412c-10.08217223 0-18.33122225-8.24904999-18.33122226-18.33122223V408.12307399c0-10.08217223 8.24904999-18.33122225 18.33122226-18.33122222h61.10407413c10.08217223 0 18.33122225 8.24904999 18.33122223 18.33122222v391.06607439c0 10.08217223-8.24904999 18.33122225-18.33122223 18.33122221z" fill="#737680" p-id="1775"></path></svg>