<?xml version="1.0" standalone="no"?><!DOCTYPE svg PUBLIC "-//W3C//DTD SVG 1.1//EN" "http://www.w3.org/Graphics/SVG/1.1/DTD/svg11.dtd"><svg t="1584765831988" class="icon" viewBox="0 0 1024 1024" version="1.1" xmlns="http://www.w3.org/2000/svg" p-id="6277" xmlns:xlink="http://www.w3.org/1999/xlink" width="200" height="200"><defs><style type="text/css"></style></defs><path d="M709.778286 167.183673a62.693878 62.693878 0 0 1 52.349387 28.191347l121.667919 184.549878a62.693878 62.693878 0 0 1-3.636245 73.978775L552.75102 858.00751a62.693878 62.693878 0 0 1-98.283102-1.107592L140.643265 451.458612A62.693878 62.693878 0 0 1 135.836735 381.84751l105.283918-183.212408A62.693878 62.693878 0 0 1 295.476245 167.183673h414.302041z m84.950204 292.571429h-129.483755l-100.895347 284.337633L794.749388 459.755102z m-459.399837 0h-108.982857L440.737959 736.715755 335.328653 459.755102z m263.397878 0h-196.336327l101.58498 267.013225L598.726531 459.755102z m-331.901388-180.056816L199.408327 397.061224h112.075755l-44.658939-117.362938z m467.027592-13.312L687.480163 397.061224h132.513959l-86.141387-130.674938zM501.55102 234.370612L412.797388 397.061224h177.486367L501.55102 234.370612z m-68.942367-4.513959h-117.65551l48.357877 127.08049 69.297633-127.08049z m247.70351 0H570.514286l66.518204 121.96049 43.279673-121.96049z" p-id="6278" fill="#fff"></path></svg>